<svg width="18" height="18" viewBox="0 0 18 18" fill="none" xmlns="http://www.w3.org/2000/svg">
<path d="M16.4663 12.2662C15.2996 12.2662 14.1796 12.0796 13.1343 11.7342C12.8076 11.6316 12.4436 11.7062 12.1823 11.9582L10.1289 14.0116C7.48761 12.6676 5.32228 10.5116 3.97828 7.8609L6.03161 5.79823C6.29294 5.55556 6.36761 5.19156 6.26494 4.8649C5.91961 3.81956 5.73294 2.69956 5.73294 1.5329C5.73294 1.01956 5.31294 0.599564 4.79961 0.599564H1.53294C1.01961 0.599564 0.599609 1.01956 0.599609 1.5329C0.599609 10.2969 7.70228 17.3996 16.4663 17.3996C16.9796 17.3996 17.3996 16.9796 17.3996 16.4662V13.1996C17.3996 12.6862 16.9796 12.2662 16.4663 12.2662ZM15.5329 8.99956H17.3996C17.3996 4.3609 13.6383 0.599564 8.99961 0.599564V2.46623C12.6116 2.46623 15.5329 5.38756 15.5329 8.99956ZM11.7996 8.99956H13.6663C13.6663 6.42356 11.5756 4.3329 8.99961 4.3329V6.19956C10.5489 6.19956 11.7996 7.45023 11.7996 8.99956Z" fill="#7034FA"/>
</svg>
