<svg width="30" height="28" viewBox="0 0 30 28" fill="none" xmlns="http://www.w3.org/2000/svg">
<path d="M3.91304 3.91304V0H6.52174V3.91304H10.4348V6.52174H6.52174V10.4348H3.91304V6.52174H0V3.91304H3.91304ZM7.82609 11.7391V7.82609H11.7391V3.91304H20.8696L23.2565 6.52174H27.3913C28.8261 6.52174 30 7.69565 30 9.13043V24.7826C30 26.2174 28.8261 27.3913 27.3913 27.3913H6.52174C5.08696 27.3913 3.91304 26.2174 3.91304 24.7826V11.7391H7.82609ZM16.9565 23.4783C20.5565 23.4783 23.4783 20.5565 23.4783 16.9565C23.4783 13.3565 20.5565 10.4348 16.9565 10.4348C13.3565 10.4348 10.4348 13.3565 10.4348 16.9565C10.4348 20.5565 13.3565 23.4783 16.9565 23.4783ZM12.7826 16.9565C12.7826 19.2652 14.6478 21.1304 16.9565 21.1304C19.2652 21.1304 21.1304 19.2652 21.1304 16.9565C21.1304 14.6478 19.2652 12.7826 16.9565 12.7826C14.6478 12.7826 12.7826 14.6478 12.7826 16.9565Z" fill="#FAFAFA"/>
</svg>
