<svg width="23" height="30" viewBox="0 0 23 30" fill="none" xmlns="http://www.w3.org/2000/svg">
<path d="M4.86134 15.8121C4.77954 16.8185 4.668 17.7802 4.64569 18.7419C4.63082 19.383 4.73492 20.0242 4.82416 20.6653C4.86134 20.9039 4.81672 21.0455 4.64569 21.2095C3.93183 21.8879 3.74592 22.9242 4.14747 23.8113C4.54902 24.691 5.47109 25.2278 6.43778 25.1532C7.38217 25.0787 8.18526 24.4077 8.45296 23.4758C8.86195 22.0296 7.79115 20.5758 6.28163 20.5609C5.99162 20.5609 5.90239 20.4715 5.85777 20.2031C5.62725 18.5779 5.74623 16.9825 6.25188 15.417C6.28906 15.2977 6.41548 15.1561 6.52702 15.1188C7.76141 14.7684 9.00323 14.4926 10.2971 14.4106C11.5984 14.3285 12.8923 14.3658 14.1713 14.582C14.9595 14.7162 15.7329 14.9473 16.5137 15.1561C16.6326 15.1859 16.7814 15.3126 16.8111 15.4244C17.1383 16.6918 17.0044 17.9591 16.7888 19.2414C16.4765 19.2414 16.1716 19.219 15.8667 19.2489C14.967 19.3234 14.2531 19.7707 13.6805 20.4491C13.0485 21.1946 12.6915 22.0743 12.4015 22.9913C12.3495 23.1627 12.2231 23.3417 12.0818 23.446C11.5389 23.856 11.4051 24.5643 11.7992 25.0936C12.1784 25.608 12.9072 25.7123 13.4203 25.3172C13.9334 24.9221 14.03 24.199 13.6136 23.6995C13.4723 23.528 13.4277 23.3864 13.5169 23.2C13.8144 22.5663 14.0598 21.8879 14.4464 21.3064C15.0488 20.4118 15.9039 20.1658 16.9301 20.4491C17.9191 20.7175 18.5288 21.3884 18.6106 22.4396C18.6627 23.1105 18.566 23.7964 18.5065 24.4748C18.4991 24.5941 18.3504 24.7432 18.2314 24.8028C17.5993 25.1234 17.3539 25.8018 17.6588 26.3982C17.9563 26.9722 18.6553 27.1884 19.2204 26.8828C19.8004 26.5697 19.9789 25.8838 19.6591 25.2725C19.5922 25.1383 19.5625 24.9445 19.5922 24.7954C19.7855 23.774 19.8822 22.7527 19.6071 21.7314C19.3766 20.8666 18.8858 20.1956 18.1124 19.726C18.0158 19.6663 17.9042 19.5023 17.9191 19.4054C18.0752 18.2126 18.2537 17.0198 18.0232 15.7375C18.276 15.8643 18.4694 15.9612 18.6627 16.0656C20.0012 16.7962 21.1612 17.7206 22.0089 19.0103C22.6113 19.9347 22.9533 20.9486 22.9533 22.0594C22.9533 23.7591 22.9607 25.4663 22.9533 27.1661C22.9459 28.2098 22.232 28.9404 21.191 29C20.953 29.0149 20.7225 29.0075 20.4845 29.0075C14.3721 29.0075 8.26706 29.0075 2.1546 29C1.80511 29 1.42587 28.9627 1.10612 28.836C0.414561 28.5527 0.0278853 28.001 0.0204492 27.2704C-0.00185902 25.4216 -0.0167312 23.5653 0.0353214 21.7165C0.0725018 20.3596 0.689696 19.2116 1.55972 18.1977C2.39999 17.2211 3.43361 16.5129 4.55646 15.9165C4.65313 15.8643 4.76467 15.8419 4.86134 15.8121Z" fill="#7034FA"/>
<path d="M17.7258 6.28458C17.7183 9.75861 14.9149 12.5542 11.4497 12.5468C7.99937 12.5393 5.21084 9.72134 5.21828 6.23985C5.22571 2.79563 8.02911 0 11.4795 0C14.9372 0 17.7258 2.80309 17.7258 6.28458Z" fill="#7034FA"/>
</svg>
