<svg width="90" height="13" viewBox="0 0 90 13" fill="none" xmlns="http://www.w3.org/2000/svg">
<path d="M13.9635 4.91254C13.8718 4.63786 13.6204 4.44277 13.3229 4.41679L9.28214 4.06127L7.68431 0.437487C7.56649 0.171911 7.29817 0 7.00006 0C6.70194 0 6.43362 0.171911 6.31581 0.438108L4.71797 4.06127L0.676558 4.41679C0.379615 4.44339 0.128816 4.63786 0.0366355 4.91254C-0.0555451 5.18723 0.0295857 5.48851 0.254216 5.67843L3.30856 8.27396L2.40791 12.1182C2.342 12.4008 2.45523 12.693 2.69727 12.8626C2.82737 12.9536 2.97958 13 3.13307 13C3.26541 13 3.39668 12.9654 3.5145 12.8971L7.00006 10.8786L10.4843 12.8971C10.7393 13.0457 11.0607 13.0322 11.3022 12.8626C11.5444 12.6925 11.6575 12.4002 11.5916 12.1182L10.6909 8.27396L13.7453 5.67895C13.9699 5.48851 14.0557 5.18775 13.9635 4.91254Z" fill="#FFC107"/>
<path d="M32.9635 4.91254C32.8718 4.63786 32.6204 4.44277 32.3229 4.41679L28.2821 4.06127L26.6843 0.437487C26.5665 0.171911 26.2982 0 26.0001 0C25.7019 0 25.4336 0.171911 25.3158 0.438108L23.718 4.06127L19.6766 4.41679C19.3796 4.44339 19.1288 4.63786 19.0366 4.91254C18.9445 5.18723 19.0296 5.48851 19.2542 5.67843L22.3086 8.27396L21.4079 12.1182C21.342 12.4008 21.4552 12.693 21.6973 12.8626C21.8274 12.9536 21.9796 13 22.1331 13C22.2654 13 22.3967 12.9654 22.5145 12.8971L26.0001 10.8786L29.4843 12.8971C29.7393 13.0457 30.0607 13.0322 30.3022 12.8626C30.5444 12.6925 30.6575 12.4002 30.5916 12.1182L29.6909 8.27396L32.7453 5.67895C32.9699 5.48851 33.0557 5.18775 32.9635 4.91254Z" fill="#FFC107"/>
<path d="M51.9635 4.91254C51.8718 4.63786 51.6204 4.44277 51.3229 4.41679L47.2821 4.06127L45.6843 0.437487C45.5665 0.171911 45.2982 0 45.0001 0C44.7019 0 44.4336 0.171911 44.3158 0.438108L42.718 4.06127L38.6766 4.41679C38.3796 4.44339 38.1288 4.63786 38.0366 4.91254C37.9445 5.18723 38.0296 5.48851 38.2542 5.67843L41.3086 8.27396L40.4079 12.1182C40.342 12.4008 40.4552 12.693 40.6973 12.8626C40.8274 12.9536 40.9796 13 41.1331 13C41.2654 13 41.3967 12.9654 41.5145 12.8971L45.0001 10.8786L48.4843 12.8971C48.7393 13.0457 49.0607 13.0322 49.3022 12.8626C49.5444 12.6925 49.6575 12.4002 49.5916 12.1182L48.6909 8.27396L51.7453 5.67895C51.9699 5.48851 52.0557 5.18775 51.9635 4.91254Z" fill="#FFC107"/>
<path d="M70.9635 4.91254C70.8718 4.63786 70.6204 4.44277 70.3229 4.41679L66.2821 4.06127L64.6843 0.437487C64.5665 0.171911 64.2982 0 64.0001 0C63.7019 0 63.4336 0.171911 63.3158 0.438108L61.718 4.06127L57.6766 4.41679C57.3796 4.44339 57.1288 4.63786 57.0366 4.91254C56.9445 5.18723 57.0296 5.48851 57.2542 5.67843L60.3086 8.27396L59.4079 12.1182C59.342 12.4008 59.4552 12.693 59.6973 12.8626C59.8274 12.9536 59.9796 13 60.1331 13C60.2654 13 60.3967 12.9654 60.5145 12.8971L64.0001 10.8786L67.4843 12.8971C67.7393 13.0457 68.0607 13.0322 68.3022 12.8626C68.5444 12.6925 68.6575 12.4002 68.5916 12.1182L67.6909 8.27396L70.7453 5.67895C70.9699 5.48851 71.0557 5.18775 70.9635 4.91254Z" fill="#FFC107"/>
<path d="M89.9635 4.91254C89.8718 4.63786 89.6204 4.44277 89.3229 4.41679L85.2821 4.06127L83.6843 0.437487C83.5665 0.171911 83.2982 0 83.0001 0C82.7019 0 82.4336 0.171911 82.3158 0.438108L80.718 4.06127L76.6766 4.41679C76.3796 4.44339 76.1288 4.63786 76.0366 4.91254C75.9445 5.18723 76.0296 5.48851 76.2542 5.67843L79.3086 8.27396L78.4079 12.1182C78.342 12.4008 78.4552 12.693 78.6973 12.8626C78.8274 12.9536 78.9796 13 79.1331 13C79.2654 13 79.3967 12.9654 79.5145 12.8971L83.0001 10.8786L86.4843 12.8971C86.7393 13.0457 87.0607 13.0322 87.3022 12.8626C87.5444 12.6925 87.6575 12.4002 87.5916 12.1182L86.6909 8.27396L89.7453 5.67895C89.9699 5.48851 90.0557 5.18775 89.9635 4.91254Z" fill="#FFC107"/>
</svg>
